<svg width="131" height="35" xmlns="http://www.w3.org/2000/svg">
    <path d="M98.459 9.068a3.341 3.341 0 01-3.338-3.345 3.341 3.341 0 013.338-3.345 3.341 3.341 0 013.337 3.345 3.341 3.341 0 01-3.337 3.345zm31.2-8.362c1.093 0 1.609.57 1.203 1.33l-2.756 7.208c-.14.365-.593.66-1.012.66h-2.388c-.24 0-.409-.178-.377-.395l1.18-8.225c.062-.315.47-.578.896-.578h3.254zm-5.078 28.173c.126-.028.578 0 .578.522 0 1.167-.635 2.403-1.489 3.298-.418.439-.944.686-1.663.807-.523.088-.986.108-2.07.1-5.496-.453-5.04-6.4-4.896-7.567l.023-.175c.44-3.22.653-4.821.9-6.778a3.383 3.383 0 00-.169-1.46c-.271-.806-.95-1.226-1.874-1.269a7.613 7.613 0 00-3.283.565c-.224.093-.422.375-.457.619a4379.45 4379.45 0 00-1.437 10.27l-.024.174-.582 4.177a6.64 6.64 0 01-.167.801c-.082.31-.287.529-.63.593-.176.033-1.316.085-1.829.104v.064h-9.734v-.061c-1.216-.065-2.227-.834-2.911-2.059a4.663 4.663 0 01-2.98 1.99c-4.252 1.355-7.468-3.341-7.837-4.085-.373-.75-1.815-3.522-2.308-4.469a4.697 4.697 0 00-.025-.064c-.02-.052-.083-.205-.09-.221a.266.266 0 00-.246-.167h-2.06a.265.265 0 00-.263.228 8281.03 8281.03 0 00-.595 4.453l-.109.816a159.63 159.63 0 01-.362 2.623c-.094.632-.343.881-.899.894-1.545.037-7.811-.037-10.608-.049-5.576-.82-4.41-7.712-4.41-7.712.365-2.72.635-4.71.91-6.774.044-.333.023-.7-.052-1.071-.213-1.055-.916-1.63-2.055-1.683a7.792 7.792 0 00-3.293.557.86.86 0 00-.481.606c-.36 2.477-.648 4.506-1.268 8.896l-.42 2.965-.049.347a180.052 180.052 0 01-.425 2.882c-.112.713-.363.944-1.055.958-1.55.033-3.173.002-5.002.002-.737 0-.43-.431-.524-.636a.267.267 0 00-.327-.14c-1.328.445-2.76.916-4.88.928-2.132.004-3.224-.57-3.946-1.595a.267.267 0 00-.38-.058c-.953.722-1.889 1.168-2.882 1.336-2.825.476-5.05.001-6.839-1.662-1.143-1.062-1.82-2.461-2.112-4.197-.02-.12-.038-.238-.056-.356-3.952 10.144-21.57 6.325-21.965 6.21-.988-.29-1.075-.495-.988-1.226-.087 0 3.5-24.58 3.5-24.58-.688 0-3.804 1.252-3.804 1.252-.334.149-.351-.063-.423-.327L.006 4.552c-.04-.143.132-.243.22-.29C.714 4 5.487.705 13.393.705c6.416 0 11.56 3.71 11.267 8.295-.293 4.584-3.294 6.619-3.294 6.619s2.8 1.817 3.874 5.198c.211-.816.489-1.62.84-2.409 1.498-3.373 4.114-5.488 7.815-6.334 2.79-.638 5.628-.561 8.508.202.512.136.929.27 1.825.574.965.327 1.26.783 1.14 1.633a282.4 282.4 0 01-.54 3.613c-.512 3.329-.723 4.803-.933 6.656-.03.259-.085.787-.085.787-.006.085-.074.94-.087 1.185-.019.363-.023.68-.01.984.043 1.06.654 1.592 1.743 1.533a7.464 7.464 0 001.065-.149.263.263 0 00.21-.22l.054-.373 1.424-9.937c.04-.286.075-.515.152-1.03.169-1.126.24-1.63.315-2.258.106-.898.57-1.46 1.445-1.758 3.964-1.349 7.398-1.993 10.793-1.886 1.21.039 2.432.234 3.552.573 2.102.637 3.242 2.166 3.33 4.368.049 1.188-.038 2.216-.304 4.29a397.361 397.361 0 01-.706 5.174c-.053.669-.07 1.112-.051 1.562.044 1.06.661 1.59 1.761 1.53.301-.016.603-.059 1.005-.135a.264.264 0 00.213-.222l.046-.339.722-5.26.018-.129.56-4.078 1.604-11.714c.028-.202.05-.374.094-.722.095-.749.14-1.071.205-1.47.157-.945.376-1.158 1.274-1.24a230.44 230.44 0 014.8-.381c.668-.047.838.125.763.783a209.021 209.021 0 01-.534 4.229l-.15 1.129-.877 6.636-.407 3.075a.262.262 0 00.193.286c1.628.442 3.812-.367 4.837-1.784.923-1.277 1.412-2.745 1.496-4.407l.013-.246c.017-.308.037-.525.071-.736.074-.462.285-.667.697-.675 1.732-.035 3.37-.04 4.952-.015.44.007.662.275.694.861.063 1.155-.143 2.33-.6 3.692-.736 2.2-1.796 3.884-3.333 5.124-.16.13-.333.254-.578.417l-.15.1-.153.101c-.127.084-.222.148-.316.213a.26.26 0 00-.096.31l.33.842.332.844.376.957c.05.115.102.239.155.371 2.243 5.542 5.015 3.193 5.21 3.017a11.911 11.911 0 01.052-2.86s.318-2.385.405-2.98l.013-.09.48-3.264.114-.777.11-.75c.087-.59.15-1.01.207-1.404.305-2.08.462-3.151.521-3.566.1-.707.357-.95 1.035-.966 1.58-.038 3.236-.04 5.096-.014.51.007.661.178.607.696-.076.73-.687 4.973-1.952 13.638-.05.582-.069 1.042-.05 1.484.044 1.06.655 1.592 1.744 1.533.372-.02 1.42.159 1.656-1.06 0 0 .237-1.088.384-2.148l.225-1.617 1.125-8.085c.015-.11.03-.2.063-.403.053-.312.075-.46.093-.635.089-.87.542-1.428 1.388-1.723 3.912-1.365 7.342-2.014 10.731-1.894 1.14.04 2.306.24 3.388.578 2.042.639 3.154 2.155 3.246 4.335.051 1.19-.034 2.238-.293 4.289-.199 1.58-.417 3.197-.714 5.336l-.06.575c-.158 1.27.68 2.346 1.81 2.284.256-.014.5-.05.806-.112l.195-.04.195-.043zM12.675 6.04a.173.173 0 01.131-.141 6.726 6.726 0 01.466-.088c.826-.125 1.703-.13 2.53.064.602.14 3.23.744 2.39 4.024-.838 3.28-5.105 3.38-5.742 3.345a26.825 26.825 0 01-.563-.037l-.044-.003a.172.172 0 01-.16-.193l.992-6.97zm5.517 19.44c-1.017 5.066-7.217 4.5-8.032 4.45a30.919 30.919 0 01-.775-.058c-.129-.012-.222-.139-.205-.278l1.268-10.034a.24.24 0 01.168-.205l.162-.04a7.4 7.4 0 01.433-.086c1.055-.18 2.176-.187 3.233.092.768.203 4.765 1.094 3.748 6.16zm20.91-8.018c-.142.827-1.07 7.616-1.373 9.441-.09.548-.631.98-1.195 1.136-1.148.32-1.972.363-2.815.033-.903-.352-1.465-1.045-1.684-1.962-.729-3.053-.25-5.88 1.503-8.412.912-1.319 2.448-2.033 4.047-1.932 1.042.067 1.247.1 1.463.34.22.243.211.436.054 1.356z"
          fill="#FFF" fill-rule="evenodd"/>
</svg>